<?xml version="1.0" standalone="no"?><!DOCTYPE svg PUBLIC "-//W3C//DTD SVG 1.1//EN" "http://www.w3.org/Graphics/SVG/1.1/DTD/svg11.dtd"><svg width="32" height="32" viewBox="0 0 32 32" version="1.1" xmlns="http://www.w3.org/2000/svg" xmlns:xlink="http://www.w3.org/1999/xlink"><defs><style type="text/css"><![CDATA[
@font-face { font-family: ifont; src: url(http://at.alicdn.com/t/font_1442373896_4754455.eot?#iefix) format(embedded-opentype), url(http://at.alicdn.com/t/font_1442373896_4754455.woff) format(woff), url(http://at.alicdn.com/t/font_1442373896_4754455.ttf) format(truetype), url(http://at.alicdn.com/t/font_1442373896_4754455.svg#ifont) format(svg); }

]]></style></defs><g class="transform-group"><g transform="scale(0.03125, 0.03125)"><path d="M938.500209 813.668621 876.086717 813.668621 876.086717 314.353524c0-22.978341-18.630313-41.608653-41.608653-41.608653L668.042427 272.744871 668.042427 147.917888c0-34.468023-7.131421-62.413492-41.629119-62.413492L210.324728 85.504396c-34.456766 0-62.412468 27.946492-62.412468 62.413492l0 665.750733L85.519234 813.668621c-11.498892 0-20.804838 9.304923-20.804838 20.804838l0 83.217307c0 11.478426 9.305947 20.803815 20.804838 20.803815l852.980975 0c11.478426 0 20.784372-9.325389 20.784372-20.803815l0-83.217307C959.284581 822.973544 949.978634 813.668621 938.500209 813.668621zM376.780831 730.451314c0 22.958898-18.630313 41.608653-41.608653 41.608653l-41.608653 0c-22.978341 0-41.608653-18.650779-41.608653-41.608653l0-41.608653c0-22.998807 18.630313-41.608653 41.608653-41.608653l41.608653 0c22.978341 0 41.608653 18.61087 41.608653 41.608653L376.780831 730.451314zM376.780831 522.407024c0 22.957875-18.630313 41.608653-41.608653 41.608653l-41.608653 0c-22.978341 0-41.608653-18.651802-41.608653-41.608653l0-41.608653c0-22.998807 18.630313-41.618886 41.608653-41.618886l41.608653 0c22.978341 0 41.608653 18.62008 41.608653 41.618886L376.780831 522.407024zM376.780831 314.353524c0 22.978341-18.630313 41.608653-41.608653 41.608653l-41.608653 0c-22.978341 0-41.608653-18.630313-41.608653-41.608653l0-41.608653c0-22.978341 18.630313-41.608653 41.608653-41.608653l41.608653 0c22.978341 0 41.608653 18.630313 41.608653 41.608653L376.780831 314.353524zM564.021306 730.451314c0 22.958898-18.631336 41.608653-41.608653 41.608653l-41.609677 0c-22.977317 0-41.60763-18.650779-41.60763-41.608653l0-41.608653c0-22.998807 18.630313-41.608653 41.60763-41.608653l41.609677 0c22.977317 0 41.608653 18.61087 41.608653 41.608653L564.021306 730.451314zM564.021306 522.407024c0 22.957875-18.631336 41.608653-41.608653 41.608653l-41.609677 0c-22.977317 0-41.60763-18.651802-41.60763-41.608653l0-41.608653c0-22.998807 18.630313-41.618886 41.60763-41.618886l41.609677 0c22.977317 0 41.608653 18.62008 41.608653 41.618886L564.021306 522.407024zM564.021306 314.353524c0 22.978341-18.631336 41.608653-41.608653 41.608653l-41.609677 0c-22.977317 0-41.60763-18.630313-41.60763-41.608653l0-41.608653c0-22.978341 18.630313-41.608653 41.60763-41.608653l41.609677 0c22.977317 0 41.608653 18.630313 41.608653 41.608653L564.021306 314.353524zM792.869411 668.037822c0 11.479449-9.325389 20.804838-20.803815 20.804838l-41.608653 0c-11.479449 0-20.804838-9.325389-20.804838-20.804838l0-41.60763c0-11.499915 9.325389-20.804838 20.804838-20.804838l41.608653 0c11.478426 0 20.803815 9.304923 20.803815 20.804838L792.869411 668.037822zM792.869411 501.603209c0 11.478426-9.325389 20.803815-20.803815 20.803815l-41.608653 0c-11.479449 0-20.804838-9.325389-20.804838-20.803815l0-41.608653c0-11.498892 9.325389-20.815071 20.804838-20.815071l41.608653 0c11.478426 0 20.803815 9.31618 20.803815 20.815071L792.869411 501.603209z" fill="#eb4f38"></path></g></g></svg>