<?xml version="1.0" standalone="no"?><!DOCTYPE svg PUBLIC "-//W3C//DTD SVG 1.1//EN" "http://www.w3.org/Graphics/SVG/1.1/DTD/svg11.dtd"><svg width="16" height="16" viewBox="0 0 16 16" version="1.1" xmlns="http://www.w3.org/2000/svg" xmlns:xlink="http://www.w3.org/1999/xlink"><defs><style type="text/css"><![CDATA[
@font-face { font-family: ifont; src: url("http://at.alicdn.com/t/font_1442373896_4754455.eot?#iefix") format("embedded-opentype"), url("http://at.alicdn.com/t/font_1442373896_4754455.woff") format("woff"), url("http://at.alicdn.com/t/font_1442373896_4754455.ttf") format("truetype"), url("http://at.alicdn.com/t/font_1442373896_4754455.svg#ifont") format("svg"); }

]]></style></defs><g class="transform-group"><g transform="scale(0.015625, 0.015625)"><path d="M893.978714 61.654198 127.069047 61.654198l0 857.133551 63.908542 0 0 73.307609 142.856615 0 0-73.307609 351.499539 0 0 73.307609 142.855592 0 0-73.307609 65.789379 0L893.978714 61.654198zM321.611835 800.367687 186.275497 800.367687l0-67.668169 135.337361 0L321.612858 800.367687zM837.588403 807.886941 702.251042 807.886941l0-67.668169 135.337361 0L837.588403 807.886941zM837.588403 674.862251 614.389972 674.862251c-6.27082-11.489682-18.041912-21.170159-33.45188-27.604708l204.233498-174.86768-9.168824-10.707876-210.842009 180.526563c-8.870018-2.140757-18.326391-3.492544-28.322046-3.492544-35.851533 0-66.077951 15.123442-77.552284 36.147268L183.459359 674.863275 183.459359 221.426065l654.128021 0L837.58738 674.862251zM837.588403 187.592492l-654.128021 0L183.460382 119.924323l654.128021 0L837.588403 187.592492z" fill="#f4c600"></path></g></g></svg>