<?xml version="1.0" standalone="no"?><!DOCTYPE svg PUBLIC "-//W3C//DTD SVG 1.1//EN" "http://www.w3.org/Graphics/SVG/1.1/DTD/svg11.dtd"><svg width="32" height="32" viewBox="0 0 32 32" version="1.1" xmlns="http://www.w3.org/2000/svg" xmlns:xlink="http://www.w3.org/1999/xlink"><defs><style type="text/css"><![CDATA[
@font-face { font-family: ifont; src: url("http://at.alicdn.com/t/font_1442373896_4754455.eot?#iefix") format("embedded-opentype"), url("http://at.alicdn.com/t/font_1442373896_4754455.woff") format("woff"), url("http://at.alicdn.com/t/font_1442373896_4754455.ttf") format("truetype"), url("http://at.alicdn.com/t/font_1442373896_4754455.svg#ifont") format("svg"); }

]]></style></defs><g class="transform-group"><g transform="scale(0.03125, 0.03125)"><path d="M713.714118 239.260246 309.377186 239.260246c-21.570271 0-39.055504 18.092054-39.055504 40.409338l0 461.798645c0 8.726755 6.836709 15.800871 15.270798 15.800871l5.812379 0c4.51585-1.113357 42.37204-9.798157 39.066761 15.800871l0 7.841595c0 8.726755 6.836709 15.800871 15.270798 15.800871l50.721195 0c8.43409 0 15.270798-7.074116 15.270798-15.800871l0-7.841595c0-8.726755 6.836709-15.800871 15.270798-15.800871l169.406295 0c8.43409 0 15.270798 7.074116 15.270798 15.800871l0 7.841595c0 8.726755 6.836709 15.800871 15.270798 15.800871l50.720172 0c8.43409 0 15.270798-7.074116 15.270798-15.800871l0-7.841595c5.696746-25.599028 28.990265-15.800871 37.423331-15.800871l6.881734 0c8.43409 0 15.270798-7.074116 15.270798-15.800871L752.519935 279.412734C752.520959 257.236666 735.146243 239.260246 713.714118 239.260246zM389.510248 693.553962l-46.443775 0c-8.43409 0-15.270798-7.074116-15.270798-15.800871l0-4.807493c0-8.726755 6.836709-15.800871 15.270798-15.800871l46.443775 0c8.43409 0 15.270798 7.074116 15.270798 15.800871l0 4.807493C404.781046 686.479847 397.944338 693.553962 389.510248 693.553962zM683.020048 697.599092l-46.443775 0c-8.43409 0-15.270798-7.074116-15.270798-15.800871l0-4.807493c0-8.726755 6.836709-15.800871 15.270798-15.800871l46.443775 0c8.43409 0 15.270798 7.074116 15.270798 15.800871l0 4.807493C698.290847 690.524976 691.454138 697.599092 683.020048 697.599092zM683.020048 626.025986 578.61007 626.025986c-4.048199 0-7.938809-1.611707-10.720156-4.652973-0.051165-0.056282-0.103354-0.112564-0.154519-0.167822-6.352685-6.841825-5.91778-17.739013 1.302669-23.587208l99.437733-80.530105-5.215792-5.761214-114.622574 92.827175c-3.384074 2.741437-7.674796 3.674693-11.935843 3.086291-3.058662-0.422625-6.222725-0.662079-9.489118-0.662079-17.717524 0-33.020044 6.14086-41.011043 15.170514-2.618641 2.959402-6.541997 4.278443-10.419304 4.278443L341.464999 626.02701c-8.43409 0-15.270798-7.074116-15.270798-15.800871l0-212.366735c0-8.726755 6.836709-15.800871 15.270798-15.800871L683.020048 382.058532c8.43409 0 15.270798 7.074116 15.270798 15.800871l0 212.366735C698.290847 618.951871 691.454138 626.025986 683.020048 626.025986zM683.020048 339.234191 341.464999 339.234191c-8.43409 0-15.270798-7.074116-15.270798-15.800871l0-4.807493c0-8.726755 6.836709-15.800871 15.270798-15.800871L683.020048 302.824957c8.43409 0 15.270798 7.074116 15.270798 15.800871l0 4.807493C698.290847 332.160075 691.454138 339.234191 683.020048 339.234191z" fill="#eb4f38"></path></g></g></svg>