<?xml version="1.0" standalone="no"?><!DOCTYPE svg PUBLIC "-//W3C//DTD SVG 1.1//EN" "http://www.w3.org/Graphics/SVG/1.1/DTD/svg11.dtd"><svg width="32" height="32" viewBox="0 0 32 32" version="1.1" xmlns="http://www.w3.org/2000/svg" xmlns:xlink="http://www.w3.org/1999/xlink"><defs><style type="text/css"><![CDATA[
@font-face { font-family: ifont; src: url("http://at.alicdn.com/t/font_1442373896_4754455.eot?#iefix") format("embedded-opentype"), url("http://at.alicdn.com/t/font_1442373896_4754455.woff") format("woff"), url("http://at.alicdn.com/t/font_1442373896_4754455.ttf") format("truetype"), url("http://at.alicdn.com/t/font_1442373896_4754455.svg#ifont") format("svg"); }

]]></style></defs><g class="transform-group"><g transform="scale(0.03125, 0.03125)"><path d="M513.311176 0c-197.902081 0-358.401637 160.451468-358.401637 358.401637 0 268.802763 358.401637 665.598363 358.401637 665.598363s358.401637-396.794577 358.401637-665.598363C871.712813 160.451468 711.20814 0 513.311176 0L513.311176 0zM513.311176 522.248963c-90.449118 0-163.852442-73.345004-163.852442-163.847326 0-90.503345 73.403324-163.853465 163.852442-163.853465 90.503345 0 163.801284 73.35012 163.801284 163.853465C677.112459 448.903959 603.814521 522.248963 513.311176 522.248963L513.311176 522.248963zM513.311176 522.248963" fill="#56abe4"></path></g></g></svg>